<svg width="19" height="18" viewBox="0 0 19 18" fill="none" xmlns="http://www.w3.org/2000/svg">
<path d="M5.49512 15.6113L6.05895 14.7854L5.7529 14.5765L5.38459 14.6175L5.49512 15.6113ZM2 16L1.02981 15.7577L0.681322 17.1528L2.11052 16.9939L2 16ZM2.85156 12.5908L3.82175 12.8332L3.91174 12.4729L3.7448 12.1412L2.85156 12.5908ZM10 1V2C13.866 2 17 5.13401 17 9H18H19C19 4.02944 14.9706 0 10 0V1ZM18 9H17C17 12.866 13.866 16 10 16V17V18C14.9706 18 19 13.9706 19 9H18ZM10 17V16C8.53685 16 7.18139 15.5517 6.05895 14.7854L5.49512 15.6113L4.93128 16.4372C6.37507 17.4229 8.12144 18 10 18V17ZM5.49512 15.6113L5.38459 14.6175L1.88948 15.0061L2 16L2.11052 16.9939L5.60564 16.6052L5.49512 15.6113ZM2 16L2.97019 16.2423L3.82175 12.8332L2.85156 12.5908L1.88137 12.3485L1.02981 15.7577L2 16ZM2.85156 12.5908L3.7448 12.1412C3.26929 11.1965 3 10.1308 3 9H2H1C1 10.4524 1.34664 11.8251 1.95832 13.0404L2.85156 12.5908ZM2 9H3C3 5.13401 6.13401 2 10 2V1V0C5.02944 0 1 4.02944 1 9H2Z" fill="#2563EB"/>
</svg>
