<svg width="19" height="20" viewBox="0 0 19 20" fill="none" xmlns="http://www.w3.org/2000/svg">
<path d="M10.3294 0.859863C15.1646 1.10519 19.0098 5.10431 19.01 10.0005L18.9983 10.4712C18.7531 15.3065 14.7548 19.1515 9.85867 19.1519L9.38699 19.1401C5.11847 18.9236 1.62402 15.7826 0.863044 11.6809C0.766166 11.1587 1.15358 10.6877 1.68055 10.6216C2.24687 10.5506 2.74994 10.9734 2.87152 11.531C3.57231 14.7454 6.43415 17.1519 9.85867 17.1519C13.8081 17.1515 17.0098 13.95 17.01 10.0005C17.0098 6.05102 13.8081 2.84853 9.85867 2.84814C9.08033 2.84814 8.33092 2.9728 7.62936 3.2029C7.13215 3.36597 6.56747 3.20161 6.3013 2.7511C6.00424 2.24833 6.19385 1.59377 6.74279 1.39454C7.71532 1.04157 8.76438 0.848145 9.85867 0.848145L10.3294 0.859863Z" fill="#2563EB"/>
<path d="M10.01 8.00049V11.1573C10.01 11.2663 10.0691 11.3666 10.1643 11.4195L13.01 13.0005" stroke="#2563EB" stroke-width="1.5" stroke-linecap="round"/>
</svg>
