<svg width="19" height="15" viewBox="0 0 19 15" fill="none" xmlns="http://www.w3.org/2000/svg">
<mask id="path-1-inside-1_190_1075" fill="white">
<path d="M14 1.5C14 2.05228 14.4477 2.5 15 2.5H17.666C18.2183 2.5 18.666 2.94772 18.666 3.5V14C18.666 14.5523 18.2183 15 17.666 15H1C0.447716 15 0 14.5523 0 14V3.5C0 2.94772 0.447715 2.5 1 2.5H3.66602C4.2183 2.5 4.66602 2.05228 4.66602 1.5V1C4.66602 0.447715 5.11373 0 5.66602 0H13C13.5523 0 14 0.447715 14 1V1.5Z"/>
</mask>
<path d="M15 2.5V4.5H17.666V2.5V0.5H15V2.5ZM18.666 3.5H16.666V14H18.666H20.666V3.5H18.666ZM17.666 15V13H1V15V17H17.666V15ZM0 14H2V3.5H0H-2V14H0ZM1 2.5V4.5H3.66602V2.5V0.5H1V2.5ZM4.66602 1.5H6.66602V1H4.66602H2.66602V1.5H4.66602ZM5.66602 0V2H13V0V-2H5.66602V0ZM14 1H12V1.5H14H16V1H14ZM13 0V2C12.4477 2 12 1.55228 12 1H14H16C16 -0.656853 14.6569 -2 13 -2V0ZM4.66602 1H6.66602C6.66602 1.55228 6.2183 2 5.66602 2V0V-2C4.00916 -2 2.66602 -0.656854 2.66602 1H4.66602ZM3.66602 2.5V4.5C5.32287 4.5 6.66602 3.15685 6.66602 1.5H4.66602H2.66602C2.66602 0.947716 3.11373 0.5 3.66602 0.5V2.5ZM0 3.5H2C2 4.05229 1.55228 4.5 1 4.5V2.5V0.5C-0.656854 0.5 -2 1.84315 -2 3.5H0ZM1 15V13C1.55228 13 2 13.4477 2 14H0H-2C-2 15.6569 -0.656853 17 1 17V15ZM18.666 14H16.666C16.666 13.4477 17.1137 13 17.666 13V15V17C19.3229 17 20.666 15.6569 20.666 14H18.666ZM17.666 2.5V4.5C17.1137 4.5 16.666 4.05228 16.666 3.5H18.666H20.666C20.666 1.84315 19.3229 0.5 17.666 0.5V2.5ZM15 2.5V0.5C15.5523 0.5 16 0.947715 16 1.5H14H12C12 3.15685 13.3431 4.5 15 4.5V2.5Z" fill="#367BF4" mask="url(#path-1-inside-1_190_1075)"/>
<circle cx="9.33301" cy="8" r="3" stroke="#367BF4" stroke-width="2"/>
</svg>
