<svg width="44" height="44" viewBox="0 0 44 44" fill="none" xmlns="http://www.w3.org/2000/svg">
<circle cx="22" cy="22" r="22" fill="#C3C3C3"/>
<mask id="path-2-inside-1_190_1080" fill="white">
<path d="M28.8665 13.5C28.8665 14.0523 29.3142 14.5 29.8665 14.5H34.3997C34.9519 14.5 35.3997 14.9477 35.3997 15.5V31C35.3997 31.5523 34.9519 32 34.3997 32H10.2668C9.71456 32 9.26685 31.5523 9.26685 31V15.5C9.26685 14.9477 9.71456 14.5 10.2668 14.5H14.8C15.3523 14.5 15.8 14.0523 15.8 13.5V12C15.8 11.4477 16.2478 11 16.8 11H27.8665C28.4187 11 28.8665 11.4477 28.8665 12V13.5Z"/>
</mask>
<path d="M29.8665 14.5V16.5H34.3997V14.5V12.5H29.8665V14.5ZM35.3997 15.5H33.3997V31H35.3997H37.3997V15.5H35.3997ZM34.3997 32V30H10.2668V32V34H34.3997V32ZM9.26685 31H11.2668V15.5H9.26685H7.26685V31H9.26685ZM10.2668 14.5V16.5H14.8V14.5V12.5H10.2668V14.5ZM15.8 13.5H17.8V12H15.8H13.8V13.5H15.8ZM16.8 11V13H27.8665V11V9H16.8V11ZM28.8665 12H26.8665V13.5H28.8665H30.8665V12H28.8665ZM27.8665 11V13C27.3142 13 26.8665 12.5523 26.8665 12H28.8665H30.8665C30.8665 10.3431 29.5233 9 27.8665 9V11ZM15.8 12H17.8C17.8 12.5523 17.3523 13 16.8 13V11V9C15.1432 9 13.8 10.3431 13.8 12H15.8ZM14.8 14.5V16.5C16.4569 16.5 17.8 15.1569 17.8 13.5H15.8H13.8C13.8 12.9477 14.2478 12.5 14.8 12.5V14.5ZM9.26685 15.5H11.2668C11.2668 16.0523 10.8191 16.5 10.2668 16.5V14.5V12.5C8.60999 12.5 7.26685 13.8431 7.26685 15.5H9.26685ZM10.2668 32V30C10.8191 30 11.2668 30.4477 11.2668 31H9.26685H7.26685C7.26685 32.6569 8.60999 34 10.2668 34V32ZM35.3997 31H33.3997C33.3997 30.4477 33.8474 30 34.3997 30V32V34C36.0565 34 37.3997 32.6569 37.3997 31H35.3997ZM34.3997 14.5V16.5C33.8474 16.5 33.3997 16.0523 33.3997 15.5H35.3997H37.3997C37.3997 13.8431 36.0565 12.5 34.3997 12.5V14.5ZM29.8665 14.5V12.5C30.4187 12.5 30.8665 12.9477 30.8665 13.5H28.8665H26.8665C26.8665 15.1569 28.2096 16.5 29.8665 16.5V14.5Z" fill="white" mask="url(#path-2-inside-1_190_1080)"/>
<circle cx="22.333" cy="22.2" r="4.6" stroke="white" stroke-width="2"/>
</svg>
