<svg width="20" height="20" viewBox="0 0 20 20" fill="none" xmlns="http://www.w3.org/2000/svg">
<rect width="20" height="20" rx="10" fill="#2563EB" fill-opacity="0.5"/>
<path d="M10 4.90234C10.4142 4.90234 10.75 5.23813 10.75 5.65234V9.25H14.3477C14.7618 9.25009 15.0977 9.58584 15.0977 10C15.0977 10.4142 14.7618 10.7499 14.3477 10.75H10.75V14.3477C10.7499 14.7618 10.4142 15.0977 10 15.0977C9.58584 15.0977 9.25009 14.7618 9.25 14.3477V10.75H5.65234C5.23813 10.75 4.90234 10.4142 4.90234 10C4.90234 9.58579 5.23813 9.25 5.65234 9.25H9.25V5.65234C9.25 5.23813 9.58579 4.90234 10 4.90234Z" fill="white"/>
</svg>
