<svg width="24" height="24" viewBox="0 0 24 24" fill="none" xmlns="http://www.w3.org/2000/svg">
<circle cx="12" cy="12" r="11.25" fill="white" stroke="#367BF4" stroke-width="1.5"/>
<circle cx="11.9364" cy="8.51639" r="3.45056" stroke="#367BF4" stroke-width="2"/>
<path d="M12.3027 13.8658C15.7663 14.0414 18.5752 16.6924 19 20.0846C18.3999 20.6144 17.7418 21.08 17.0332 21.4655C17.0484 21.305 17.0576 21.1426 17.0576 20.9781C17.0576 18.15 14.7646 15.8572 11.9365 15.8571C9.10839 15.8571 6.81543 18.15 6.81543 20.9781C6.81544 21.1425 6.82371 21.305 6.83887 21.4655C6.13052 21.08 5.47298 20.6142 4.87305 20.0846C5.31267 16.5737 8.3065 13.8571 11.9365 13.8571L12.3027 13.8658Z" fill="#367BF4"/>
</svg>
