<svg width="42" height="42" viewBox="0 0 42 42" fill="none" xmlns="http://www.w3.org/2000/svg">
<rect width="42" height="42" rx="8" fill="#A855F7"/>
<circle cx="21" cy="17" r="4" stroke="white" stroke-width="2"/>
<path d="M13 31.0001C13 28.5001 14.6 23.6001 21 24.0001" stroke="white" stroke-width="2" stroke-linecap="round"/>
<path d="M26.3653 23.0312C26.8798 21.4476 29.1202 21.4476 29.6347 23.0312C29.8648 23.7394 30.5248 24.2188 31.2694 24.2188C32.9345 24.2188 33.6268 26.3496 32.2798 27.3283C31.6773 27.766 31.4252 28.5418 31.6553 29.25C32.1699 30.8336 30.3574 32.1504 29.0103 31.1717C28.4079 30.734 27.5921 30.734 26.9897 31.1717C25.6426 32.1504 23.8301 30.8336 24.3447 29.25C24.5748 28.5418 24.3227 27.766 23.7202 27.3283C22.3732 26.3496 23.0655 24.2188 24.7306 24.2188C25.4752 24.2188 26.1352 23.7394 26.3653 23.0312Z" fill="white"/>
</svg>
