<svg width="54" height="38" viewBox="0 0 54 38" fill="none" xmlns="http://www.w3.org/2000/svg">
<circle cx="43.8001" cy="11.2" r="6.2" fill="#367BF4" stroke="white" stroke-width="2"/>
<path d="M43.7998 18C48.6598 18 52.5995 21.9398 52.5996 26.7998V31.8662C52.5996 32.9708 51.7042 33.8662 50.5996 33.8662H37C35.8954 33.8662 35 32.9708 35 31.8662V26.7998L35.0117 26.3467C35.2477 21.6973 39.0918 18.0001 43.7998 18Z" fill="#367BF4" stroke="white" stroke-width="2"/>
<path d="M43.3667 8.6001C42.6445 8.6001 41.2001 9.1201 41.2001 11.2001" stroke="white" stroke-width="2" stroke-linecap="round"/>
<circle cx="9.8001" cy="11.2" r="6.2" fill="#367BF4" stroke="white" stroke-width="2"/>
<path d="M9.7998 18C14.6598 18 18.5995 21.9398 18.5996 26.7998V31.8662C18.5996 32.9708 17.7042 33.8662 16.5996 33.8662H3C1.89543 33.8662 1 32.9708 1 31.8662V26.7998L1.01172 26.3467C1.24765 21.6973 5.09183 18.0001 9.7998 18Z" fill="#367BF4" stroke="white" stroke-width="2"/>
<path d="M9.36674 8.6001C8.64452 8.6001 7.20007 9.1201 7.20007 11.2001" stroke="white" stroke-width="2" stroke-linecap="round"/>
<circle cx="27" cy="8.66667" r="7.66667" fill="#367BF4" stroke="white" stroke-width="2"/>
<path d="M29 16.5557C33.9706 16.5557 38 20.5851 38 25.5557V34.333C38 35.4376 37.1046 36.333 36 36.333H18C16.8954 36.333 16 35.4376 16 34.333V25.5557C16 20.5851 20.0294 16.5557 25 16.5557H29Z" fill="#367BF4" stroke="white" stroke-width="2"/>
<path d="M26.4444 5.3335C25.5185 5.3335 23.6666 6.00016 23.6666 8.66683" stroke="white" stroke-width="2" stroke-linecap="round"/>
</svg>
