<svg width="31" height="33" viewBox="0 0 31 33" fill="none" xmlns="http://www.w3.org/2000/svg">
<path d="M2.88232 12.6177C2.88232 5.64915 8.53147 0 15.5 0C22.4686 0 28.1178 5.64915 28.1178 12.6177V29.1178H2.88232V12.6177Z" fill="white"/>
<rect x="1.69116" y="25.9854" width="27.6178" height="6.26475" rx="1.25" fill="#367BF4" stroke="white" stroke-width="1.5"/>
<path d="M15.664 17.65C15.244 17.65 14.896 17.554 14.62 17.362C14.356 17.17 14.218 16.864 14.206 16.444L14.008 7.48C13.996 7.024 14.146 6.676 14.458 6.436C14.77 6.196 15.172 6.076 15.664 6.076C16.144 6.076 16.54 6.196 16.852 6.436C17.164 6.676 17.314 7.024 17.302 7.48L17.104 16.444C17.092 16.852 16.954 17.158 16.69 17.362C16.426 17.554 16.084 17.65 15.664 17.65ZM15.664 21.988C15.16 21.988 14.734 21.814 14.386 21.466C14.038 21.118 13.864 20.71 13.864 20.242C13.864 19.762 14.038 19.348 14.386 19C14.734 18.64 15.16 18.46 15.664 18.46C16.168 18.46 16.594 18.64 16.942 19C17.29 19.348 17.464 19.762 17.464 20.242C17.464 20.71 17.29 21.118 16.942 21.466C16.594 21.814 16.168 21.988 15.664 21.988Z" fill="#367BF4"/>
</svg>
