<svg width="48" height="48" viewBox="0 0 48 48" fill="none" xmlns="http://www.w3.org/2000/svg">
<circle cx="24" cy="24" r="24" fill="#367BF4"/>
<path d="M16.1842 19.3268L15.4771 20.0339L16.1842 19.3268ZM16.1163 30.2579L16.8234 29.5508L16.1163 30.2579ZM16.116 28.2476L16.8233 28.9545L16.116 28.2476ZM17.3882 31.5298L18.0953 30.8227L17.3882 31.5298ZM20.6169 31.275L20.2441 32.2029L20.6169 31.275ZM27.13 31.3706L26.793 30.429L27.13 31.3706ZM31.6087 30.0397L32.3158 30.7468L31.6087 30.0397ZM31.3588 27.1637L32.2983 27.5062L31.3588 27.1637ZM31.371 27.13L30.4297 26.7923L31.371 27.13ZM31.2753 20.6168L32.203 20.2434L31.2753 20.6168ZM31.5298 17.3882L30.8227 18.0953L31.5298 17.3882ZM30.2579 16.1163L30.965 15.4092L30.2579 16.1163ZM28.0181 16.3454L28.725 17.0527L28.0181 16.3454ZM28.0181 16.3454L28.725 17.0527L28.9545 16.8233L28.2476 16.116L27.5407 15.4087L27.3112 15.6381L28.0181 16.3454ZM30.2579 16.1163L29.5508 16.8234L30.8227 18.0953L31.5298 17.3882L32.2369 16.681L30.965 15.4092L30.2579 16.1163ZM31.2753 20.6168L30.3477 20.9902C30.3638 21.0303 30.3795 21.0706 30.3948 21.1111L31.3304 20.758L32.266 20.4049C32.2455 20.3508 32.2245 20.2969 32.203 20.2434L31.2753 20.6168ZM34 23.0865H33V24.9135H34H35V23.0865H34ZM32.6908 26.2227V25.2227H32.5717V26.2227V27.2227H32.6908V26.2227ZM31.371 27.13L30.4297 26.7923C30.4263 26.8019 30.4228 26.8115 30.4193 26.8211L31.3588 27.1637L32.2983 27.5062C32.303 27.4934 32.3077 27.4805 32.3123 27.4677L31.371 27.13ZM31.6087 30.0397L30.9016 29.3326L29.3326 30.9016L30.0397 31.6087L30.7468 32.3158L32.3158 30.7468L31.6087 30.0397ZM27.1635 31.3585L26.8217 30.4187C26.8122 30.4221 26.8026 30.4256 26.793 30.429L27.13 31.3706L27.4669 32.3121C27.4797 32.3075 27.4925 32.3029 27.5053 32.2982L27.1635 31.3585ZM26.2227 32.5705H25.2227V32.6903H26.2227H27.2227V32.5705H26.2227ZM24.9129 34V33H23.0871V34V35H24.9129V34ZM20.7575 31.3297L21.1101 30.3939C21.0698 30.3787 21.0296 30.3631 20.9897 30.3471L20.6169 31.275L20.2441 32.2029C20.2974 32.2243 20.351 32.2452 20.4049 32.2655L20.7575 31.3297ZM17.3882 31.5298L18.0953 30.8227L16.8234 29.5508L16.1163 30.2579L15.4092 30.965L16.681 32.2369L17.3882 31.5298ZM16.116 28.2476L16.8233 28.9545L17.0527 28.725L16.3454 28.0181L15.6381 27.3112L15.4087 27.5407L16.116 28.2476ZM15.605 26.2227V25.2227H15.3091V26.2227V27.2227H15.605V26.2227ZM14 24.9135H15V23.0865H14H13V24.9135H14ZM15.3092 21.7773V22.7773H15.428V21.7773V20.7773H15.3092V21.7773ZM16.3647 19.5073L17.0719 18.8002L16.8913 18.6196L16.1842 19.3268L15.4771 20.0339L15.6576 20.2144L16.3647 19.5073ZM16.1842 17.1811L16.8913 17.8882L17.8882 16.8913L17.1811 16.1842L16.474 15.4771L15.4771 16.474L16.1842 17.1811ZM19.3268 16.1842L18.6196 16.8913L18.8002 17.0719L19.5073 16.3648L20.2144 15.6576L20.0339 15.4771L19.3268 16.1842ZM21.7773 15.428H22.7773V15.3092H21.7773H20.7773V15.428H21.7773ZM23.0865 14V15H24.9135V14V13H23.0865V14ZM26.2227 15.3092H25.2227V15.605H26.2227H27.2227V15.3092H26.2227ZM24.9135 14V15C25.0842 15 25.2227 15.1384 25.2227 15.3092H26.2227H27.2227C27.2227 14.0338 26.1888 13 24.9135 13V14ZM21.7773 15.3092H22.7773C22.7773 15.1384 22.9158 15 23.0865 15V14V13C21.8112 13 20.7773 14.0338 20.7773 15.3092H21.7773ZM20.864 16.6304L21.2015 17.5717C22.0344 17.2731 22.7773 16.4815 22.7773 15.428H21.7773H20.7773C20.7773 15.4562 20.7685 15.4972 20.728 15.5488C20.685 15.6037 20.6148 15.6574 20.5266 15.689L20.864 16.6304ZM19.5073 16.3648L18.8002 17.0719C19.4699 17.7416 20.4265 17.8496 21.2015 17.5717L20.864 16.6304L20.5266 15.689C20.3598 15.7488 20.2522 15.6954 20.2144 15.6576L19.5073 16.3648ZM17.1811 16.1842L17.8882 16.8913C18.0902 16.6893 18.4177 16.6893 18.6196 16.8913L19.3268 16.1842L20.0339 15.4771C19.0508 14.494 17.457 14.494 16.474 15.4771L17.1811 16.1842ZM16.1842 19.3268L16.8913 18.6196C16.6893 18.4177 16.6893 18.0902 16.8913 17.8882L16.1842 17.1811L15.4771 16.474C14.494 17.457 14.494 19.0508 15.4771 20.0339L16.1842 19.3268ZM16.6304 20.864L17.5717 21.2015C17.8496 20.4265 17.7416 19.4699 17.0719 18.8002L16.3647 19.5073L15.6576 20.2144C15.6954 20.2522 15.7488 20.3598 15.689 20.5266L16.6304 20.864ZM15.428 21.7773V22.7773C16.4815 22.7773 17.2731 22.0345 17.5717 21.2015L16.6304 20.864L15.689 20.5266C15.6574 20.6148 15.6037 20.685 15.5488 20.728C15.4972 20.7685 15.4562 20.7773 15.428 20.7773V21.7773ZM14 23.0865H15C15 22.9158 15.1384 22.7773 15.3092 22.7773V21.7773V20.7773C14.0338 20.7773 13 21.8112 13 23.0865H14ZM15.3091 26.2227V25.2227C15.1384 25.2227 15 25.0842 15 24.9135H14H13C13 26.1888 14.0338 27.2227 15.3091 27.2227V26.2227ZM16.5723 26.9668L17.522 26.6536C17.2691 25.8869 16.5509 25.2227 15.605 25.2227V26.2227V27.2227C15.5965 27.2227 15.5886 27.2209 15.5835 27.2191C15.5789 27.2174 15.5796 27.2168 15.5842 27.2204C15.5889 27.2242 15.5962 27.2312 15.6038 27.2422C15.6114 27.2531 15.618 27.266 15.6226 27.28L16.5723 26.9668ZM16.3454 28.0181L17.0527 28.725C17.6262 28.1513 17.7466 27.3348 17.522 26.6536L16.5723 26.9668L15.6226 27.28C15.6304 27.3036 15.6289 27.3203 15.6278 27.3258C15.6274 27.328 15.6273 27.3268 15.6292 27.3232C15.6312 27.3193 15.6344 27.3149 15.6381 27.3112L16.3454 28.0181ZM16.1163 30.2579L16.8234 29.5508C16.6588 29.3862 16.6587 29.1192 16.8233 28.9545L16.116 28.2476L15.4087 27.5407C14.4635 28.4866 14.4637 30.0195 15.4092 30.965L16.1163 30.2579ZM19.1197 31.5298L18.4126 30.8227C18.3249 30.9103 18.1829 30.9103 18.0953 30.8227L17.3882 31.5298L16.681 32.2369C17.5497 33.1055 18.9581 33.1055 19.8268 32.2369L19.1197 31.5298ZM20.6169 31.275L20.9897 30.3471C20.1802 30.0218 19.1367 30.0985 18.4126 30.8227L19.1197 31.5298L19.8268 32.2369C19.881 32.1826 20.0322 32.1177 20.2441 32.2029L20.6169 31.275ZM21.7773 32.6903H22.7773C22.7773 31.5699 21.994 30.7269 21.1101 30.3939L20.7575 31.3297L20.4049 32.2655C20.6807 32.3694 20.7773 32.5714 20.7773 32.6903H21.7773ZM23.0871 34V33C22.916 33 22.7773 32.8613 22.7773 32.6903H21.7773H20.7773C20.7773 33.9659 21.8114 35 23.0871 35V34ZM26.2227 32.6903H25.2227C25.2227 32.8613 25.084 33 24.9129 33V34V35C26.1886 35 27.2227 33.9659 27.2227 32.6903H26.2227ZM27.13 31.3706L26.793 30.429C25.9542 30.7292 25.2227 31.5223 25.2227 32.5705H26.2227H27.2227C27.2227 32.5389 27.2325 32.4979 27.2711 32.4484C27.3121 32.3956 27.3797 32.3433 27.4669 32.3121L27.13 31.3706ZM28.4662 31.6087L29.1733 30.9016C28.5158 30.2441 27.574 30.1451 26.8217 30.4187L27.1635 31.3585L27.5053 32.2982C27.5713 32.2742 27.6337 32.2713 27.6802 32.2796C27.7236 32.2874 27.7462 32.303 27.759 32.3158L28.4662 31.6087ZM30.0397 31.6087L29.3326 30.9016C29.2886 30.9456 29.2173 30.9456 29.1733 30.9016L28.4662 31.6087L27.759 32.3158C28.5841 33.1409 29.9218 33.1409 30.7468 32.3158L30.0397 31.6087ZM31.6087 28.4662L30.9016 29.1733C30.9456 29.2173 30.9456 29.2886 30.9016 29.3326L31.6087 30.0397L32.3158 30.7468C33.1409 29.9218 33.1409 28.5841 32.3158 27.759L31.6087 28.4662ZM31.3588 27.1637L30.4193 26.8211C30.1449 27.5738 30.2441 28.5158 30.9016 29.1733L31.6087 28.4662L32.3158 27.759C32.303 27.7462 32.2874 27.7236 32.2797 27.6804C32.2714 27.6341 32.2744 27.572 32.2983 27.5062L31.3588 27.1637ZM32.5717 26.2227V25.2227C31.5234 25.2227 30.7304 25.9542 30.4297 26.7923L31.371 27.13L32.3123 27.4677C32.3436 27.3803 32.3962 27.3125 32.4491 27.2712C32.4989 27.2325 32.54 27.2227 32.5717 27.2227V26.2227ZM34 24.9135H33C33 25.0842 32.8616 25.2227 32.6908 25.2227V26.2227V27.2227C33.9662 27.2227 35 26.1888 35 24.9135H34ZM32.6908 21.7773V22.7773C32.8616 22.7773 33 22.9158 33 23.0865H34H35C35 21.8112 33.9662 20.7773 32.6908 20.7773V21.7773ZM31.3304 20.758L30.3948 21.1111C30.7281 21.9942 31.5708 22.7773 32.6908 22.7773V21.7773V20.7773C32.5721 20.7773 32.3701 20.6808 32.266 20.4049L31.3304 20.758ZM31.5298 19.1197L30.8227 18.4125C30.0985 19.1367 30.0217 20.1804 30.3477 20.9902L31.2753 20.6168L32.203 20.2434C32.1179 20.032 32.1826 19.881 32.2369 19.8268L31.5298 19.1197ZM31.5298 17.3882L30.8227 18.0953C30.9103 18.1829 30.9103 18.3249 30.8227 18.4125L31.5298 19.1197L32.2369 19.8268C33.1055 18.9581 33.1055 17.5497 32.2369 16.681L31.5298 17.3882ZM28.2476 16.116L28.9545 16.8233C29.1192 16.6587 29.3862 16.6588 29.5508 16.8234L30.2579 16.1163L30.965 15.4092C30.0195 14.4637 28.4866 14.4635 27.5407 15.4087L28.2476 16.116ZM26.9668 16.5723L26.6536 17.522C27.3348 17.7466 28.1513 17.6262 28.725 17.0527L28.0181 16.3454L27.3112 15.6381C27.3149 15.6344 27.3193 15.6312 27.3232 15.6292C27.3268 15.6273 27.328 15.6274 27.3258 15.6278C27.3203 15.6289 27.3036 15.6304 27.28 15.6226L26.9668 16.5723ZM26.9668 16.5723L27.28 15.6226C27.266 15.618 27.2531 15.6114 27.2422 15.6038C27.2312 15.5962 27.2242 15.5889 27.2204 15.5842C27.2168 15.5796 27.2174 15.5789 27.2191 15.5835C27.2209 15.5886 27.2227 15.5965 27.2227 15.605H26.2227H25.2227C25.2227 16.5509 25.8869 17.2691 26.6536 17.522L26.9668 16.5723Z" fill="white"/>
<circle cx="24" cy="24" r="3" stroke="white" stroke-width="1.5"/>
</svg>
